<?xml version="1.0" standalone="no"?>
<!DOCTYPE svg PUBLIC "-//W3C//DTD SVG 20010904//EN"
 "http://www.w3.org/TR/2001/REC-SVG-20010904/DTD/svg10.dtd">
<svg version="1.0" xmlns="http://www.w3.org/2000/svg"
 width="588.000000pt" height="441.000000pt" viewBox="0 0 588.000000 441.000000"
 preserveAspectRatio="xMidYMid meet">

<g transform="translate(0.000000,441.000000) scale(0.100000,-0.100000)"
fill="#000000" stroke="none">
<path d="M351 4399 c-168 -33 -308 -176 -341 -348 -14 -77 -14 -3617 1 -3696
32 -172 172 -312 344 -344 79 -15 5088 -16 5166 -1 174 32 316 174 349 349 14
74 14 3618 0 3692 -33 175 -175 317 -349 349 -67 13 -5106 12 -5170 -1z m2790
-1249 c107 -83 195 -155 197 -159 2 -5 -19 -35 -46 -68 -125 -150 -235 -237
-293 -231 -39 3 -47 16 -105 168 -42 110 -90 194 -139 243 l-34 34 102 81 c56
45 107 81 113 81 5 1 98 -67 205 -149z m-491 -147 c43 -38 102 -149 135 -253
38 -119 83 -173 161 -196 50 -14 59 -14 112 1 99 29 208 116 324 257 40 48 74
88 76 88 7 0 172 -131 172 -137 0 -3 -7 -33 -16 -67 -24 -93 -78 -186 -148
-256 -112 -111 -193 -155 -540 -294 -127 -51 -263 -109 -302 -129 -255 -129
-440 -321 -520 -542 -29 -80 -64 -248 -64 -308 0 -73 -4 -77 -76 -77 l-64 0 0
314 0 313 74 57 c191 146 340 347 414 558 52 147 65 240 60 426 l-5 163 76 60
c42 32 79 59 83 59 5 0 26 -16 48 -37z m-343 -332 c-9 -190 -50 -327 -144
-483 -48 -79 -178 -229 -234 -269 l-29 -20 0 299 0 300 198 154 c108 85 201
153 206 150 5 -3 6 -60 3 -131z m1568 -92 l105 -82 0 -202 0 -203 -102 -12
c-468 -55 -875 -309 -1199 -746 -45 -60 -98 -139 -118 -176 l-36 -68 -172 0
-173 0 0 46 c0 66 36 234 67 311 57 142 172 279 308 366 106 67 208 116 450
212 252 100 309 127 421 200 147 95 247 215 302 362 15 40 30 73 34 73 4 0 55
-37 113 -81z m105 -1059 l0 -430 -44 0 -44 0 -12 68 c-30 158 -93 304 -167
383 -148 158 -353 111 -485 -111 -33 -56 -81 -188 -108 -297 l-11 -43 -210 0
-210 0 23 41 c49 87 188 259 293 364 280 277 590 423 963 454 9 1 12 -91 12
-429z m-380 -66 c22 -20 54 -65 70 -100 31 -64 70 -199 70 -241 l0 -23 -240 0
c-185 0 -240 3 -240 13 0 6 9 39 19 72 67 217 141 315 238 315 35 0 50 -7 83
-36z"/>
</g>
</svg>
