<?xml version="1.0" standalone="no"?>
<!DOCTYPE svg PUBLIC "-//W3C//DTD SVG 20010904//EN"
 "http://www.w3.org/TR/2001/REC-SVG-20010904/DTD/svg10.dtd">
<svg version="1.0" xmlns="http://www.w3.org/2000/svg"
 width="692.000000pt" height="482.000000pt" viewBox="0 0 692.000000 482.000000"
 preserveAspectRatio="xMidYMid meet">

<g transform="translate(0.000000,482.000000) scale(0.100000,-0.100000)"
fill="#000000" stroke="none">
<path d="M0 2410 l0 -2410 3460 0 3460 0 0 2410 0 2410 -3460 0 -3460 0 0
-2410z m3383 1942 c107 -134 118 -230 49 -452 -44 -145 -61 -237 -62 -338 0
-55 2 -63 17 -60 14 2 20 18 25 63 16 127 85 288 153 358 65 67 150 70 209 8
82 -85 6 -242 -126 -258 l-43 -6 37 34 c43 40 53 68 34 94 -48 66 -167 -37
-222 -194 -36 -101 -35 -102 39 -94 60 6 62 5 46 -13 -9 -10 -20 -29 -23 -41
-7 -20 -14 -23 -62 -23 -55 0 -66 -8 -40 -29 8 -7 12 -21 9 -32 -7 -24 -71
-89 -88 -89 -7 0 -29 19 -50 41 -32 35 -36 47 -32 75 l6 33 -46 3 c-41 3 -49
7 -70 41 l-23 37 55 0 c30 0 55 4 55 8 0 25 -36 124 -60 167 -54 95 -115 144
-161 130 -50 -16 -43 -74 13 -120 l33 -27 -40 7 c-96 16 -165 88 -165 172 1
68 46 117 118 129 61 10 112 -24 170 -110 25 -38 56 -94 68 -125 25 -62 57
-207 49 -220 -2 -5 4 -11 15 -14 11 -3 22 -1 25 3 8 13 -12 211 -29 282 -8 35
-27 97 -41 138 -58 165 -43 279 51 399 30 39 58 71 62 71 4 -1 24 -22 45 -48z
m311 -1462 c105 -36 168 -95 218 -205 19 -41 23 -68 23 -150 0 -93 -2 -105
-32 -166 -94 -191 -318 -261 -516 -162 -64 32 -118 88 -153 159 -27 54 -29 68
-29 169 0 109 1 111 39 183 69 129 171 190 322 191 46 1 91 -6 128 -19z
m-2364 -17 c-31 -22 -24 -64 45 -243 31 -80 69 -180 85 -224 29 -78 36 -93 44
-85 16 16 168 438 174 481 5 41 -8 65 -43 78 -12 5 16 9 78 11 53 2 97 2 97
-1 0 -3 -13 -12 -28 -21 -37 -21 -66 -82 -163 -339 -122 -327 -143 -380 -150
-380 -3 0 -36 71 -72 158 -207 492 -247 572 -284 572 -8 0 -12 3 -10 8 3 4 60
6 127 4 115 -3 121 -4 100 -19z m1067 13 c2 -2 3 -30 1 -62 -3 -44 -6 -54 -12
-39 -5 11 -20 32 -34 48 -25 27 -27 27 -149 27 l-123 0 0 -145 0 -145 79 0
c98 0 128 11 146 52 13 31 14 26 13 -77 0 -60 -3 -98 -5 -84 -2 15 -15 37 -29
50 -22 21 -37 24 -115 27 l-89 4 0 -160 c0 -137 2 -161 16 -166 26 -10 176 -7
219 5 37 10 93 58 123 104 14 23 15 25 -8 -87 l-11 -58 -257 0 c-256 0 -257 0
-226 19 21 13 33 30 38 51 11 56 7 554 -5 589 -7 20 -20 33 -35 37 -13 3 -24
9 -24 13 0 6 481 4 487 -3z m423 2 c0 -5 -6 -8 -14 -8 -8 0 -22 -7 -30 -16
-14 -13 -16 -57 -16 -330 l0 -314 108 0 c127 0 159 12 211 80 l34 45 -7 -35
c-4 -19 -12 -51 -18 -70 -6 -19 -12 -41 -14 -47 -3 -10 -60 -13 -244 -13 -158
0 -239 3 -235 10 3 6 14 10 25 10 34 0 40 50 39 339 -1 152 -4 287 -8 301 -4
14 -17 29 -29 35 -12 5 -22 12 -22 15 0 3 49 6 110 5 60 0 110 -3 110 -7z
m1460 0 c0 -5 -6 -8 -13 -8 -8 0 -22 -9 -31 -19 -16 -17 -17 -44 -14 -267 3
-244 3 -250 28 -293 45 -79 150 -110 262 -77 66 19 123 75 135 133 10 49 10
416 0 465 -6 27 -15 40 -37 50 -17 7 -30 15 -30 18 0 3 41 5 90 5 86 0 113 -7
70 -18 -41 -11 -50 -62 -50 -280 0 -241 -10 -291 -71 -349 -68 -65 -194 -99
-295 -78 -73 15 -109 33 -146 74 -50 54 -58 105 -58 352 0 231 -6 272 -40 281
-46 12 -13 19 90 18 60 0 110 -3 110 -7z m974 -9 c52 -12 108 -55 132 -100 16
-32 19 -115 4 -154 -15 -39 -65 -83 -110 -96 -22 -7 -39 -15 -38 -18 2 -3 38
-60 82 -126 82 -126 131 -185 153 -185 7 0 13 -4 13 -9 0 -12 -80 -20 -106
-10 -38 13 -87 74 -162 198 -41 67 -78 121 -83 122 -5 0 -26 1 -46 2 l-38 0
-3 -134 c-3 -144 4 -168 46 -172 12 0 22 -5 22 -9 0 -4 -54 -8 -121 -8 -77 0
-118 4 -114 10 3 6 14 10 24 10 39 0 41 13 41 334 0 274 -2 312 -17 328 -9 10
-25 18 -35 18 -11 0 -17 3 -15 8 8 11 316 4 371 -9z m-2951 -1098 c19 -8 27
-17 25 -29 -3 -9 -10 -15 -19 -12 -8 2 -36 4 -64 5 -46 0 -50 -2 -50 -24 0
-21 9 -28 60 -48 95 -36 121 -88 70 -138 -39 -40 -125 -35 -184 11 -2 2 2 10
8 18 11 14 16 13 37 0 34 -23 93 -22 110 1 24 33 17 40 -81 77 -52 20 -60 27
-63 52 -10 88 53 124 151 87z m2120 -3 c19 -10 21 -17 8 -37 -8 -12 -12 -12
-25 -2 -21 18 -83 18 -101 0 -24 -24 5 -55 64 -69 54 -13 76 -31 86 -72 6 -22
1 -33 -23 -58 -25 -25 -39 -30 -77 -30 -44 0 -105 22 -105 38 1 27 18 31 56
12 59 -31 112 -14 100 33 -5 20 -17 28 -66 41 -83 24 -112 70 -75 124 27 38
105 48 158 20z m-1793 -87 c0 -79 3 -103 18 -120 24 -30 76 -31 105 -2 19 19
22 35 25 121 4 92 5 100 24 100 19 0 20 -6 16 -111 l-3 -111 -33 -29 c-27 -24
-41 -29 -85 -29 -46 0 -57 4 -83 31 -28 29 -29 34 -32 140 l-4 109 26 0 26 0
0 -99z m500 -41 c0 -139 0 -140 -22 -140 -23 0 -23 1 -23 140 0 139 0 140 23
140 22 0 22 -1 22 -140z m460 120 c0 -17 -7 -20 -45 -20 l-45 0 0 -120 0 -120
-26 0 -26 0 4 120 3 120 -47 0 c-41 0 -48 3 -48 20 0 19 7 20 115 20 108 0
115 -1 115 -20z m430 0 c0 -18 -7 -20 -80 -20 l-80 0 0 -40 0 -40 70 0 c56 0
70 -3 70 -15 0 -12 -14 -15 -70 -15 l-70 0 0 -45 0 -45 80 0 c73 0 80 -2 80
-20 0 -19 -7 -20 -100 -20 l-100 0 0 140 0 140 100 0 c93 0 100 -1 100 -20z"/>
<path d="M3305 4183 c-16 -33 -17 -56 -10 -218 4 -99 11 -243 14 -320 6 -131
7 -140 26 -140 18 0 20 7 22 80 2 44 8 166 15 270 15 231 15 280 -5 328 -20
47 -40 47 -62 0z"/>
<path d="M3488 2876 c-59 -21 -85 -42 -111 -88 -48 -84 -59 -139 -56 -271 4
-114 6 -127 36 -188 46 -93 119 -139 222 -139 50 0 135 35 163 66 31 36 67
129 78 202 18 130 -20 283 -88 355 -60 63 -169 92 -244 63z"/>
<path d="M5050 2700 l0 -173 72 7 c126 12 173 56 173 166 0 54 -4 75 -21 96
-37 50 -65 64 -146 70 l-78 7 0 -173z"/>
</g>
</svg>
